# Blender v2.81 (sub 16) OBJ File: ''
# www.blender.org
mtllib agriculture_04_prop_04_lod0.mtl
o agriculture_04_prop_04_lod0
v 0.474862 0.253174 0.023652
v 0.494866 0.248169 0.023652
v 0.484872 0.253174 0.023652
v 0.494866 0.002041 0.023652
v 0.464883 0.002041 0.023652
v 0.464883 0.248169 0.023652
v -0.015411 0.248169 0.014375
v -0.005402 0.253174 0.014375
v -0.015411 0.253174 0.004365
v -0.015411 0.002041 0.014375
v -0.015411 0.253174 -0.005645
v -0.015411 0.002041 -0.015655
v -0.015411 0.248169 -0.015655
v -0.015411 0.248169 0.014375
v -0.015411 0.253174 0.004365
v -0.015411 0.253174 -0.484745
v -0.015411 0.248169 -0.464726
v -0.015411 0.253174 -0.474736
v -0.015411 0.002041 -0.464726
v -0.015411 0.002041 -0.494740
v -0.015411 0.248169 -0.494740
v 0.003631 0.110779 0.005586
v 0.230783 0.139404 0.021070
v 0.003631 0.139404 0.005586
v 0.235899 0.110779 0.015693
v 0.492724 0.139404 0.019435
v 0.491431 0.112244 0.019497
v 0.493210 0.184814 0.014863
v 0.489112 0.213379 0.009736
v 0.296789 0.184814 0.025605
v 0.297761 0.211914 0.025605
v 0.202362 0.213379 0.013887
v 0.201630 0.179199 0.013887
v 0.003631 0.184814 0.005586
v 0.003631 0.213379 0.005586
v -0.015411 0.002041 0.014375
v -0.005402 0.253174 0.014375
v -0.015411 0.248169 0.014375
v 0.014618 0.002041 0.014375
v 0.014618 0.248169 0.014375
v 0.004608 0.253174 0.014375
v -0.009552 0.128174 -0.492472
v -0.009552 0.156738 -0.488531
v -0.009552 0.128174 -0.304401
v -0.009552 0.155273 -0.305336
v -0.009552 0.156738 -0.211455
v -0.009552 0.122559 -0.210723
v -0.009552 0.156738 -0.011992
v -0.009552 0.128174 -0.011992
v -0.008576 0.218140 -0.014434
v -0.008576 0.189575 -0.238818
v -0.008576 0.189575 -0.014434
v -0.008576 0.218140 -0.244106
v -0.008576 0.189575 -0.492308
v -0.008576 0.216675 -0.491053
v 0.003631 0.059021 0.005586
v 0.252473 0.046973 0.013460
v 0.260320 0.075082 0.011613
v 0.003631 0.030426 0.005586
v 0.491044 0.046021 0.019985
v 0.492852 0.073185 0.019897
v -0.006622 0.046753 -0.011992
v -0.006622 0.075317 -0.098174
v -0.006622 0.046753 -0.098174
v -0.006622 0.075317 -0.011992
v -0.006622 0.041497 -0.298075
v -0.006622 0.065125 -0.301880
v -0.006622 0.046710 -0.490813
v -0.006622 0.071737 -0.493298
v -0.015411 0.248169 -0.494740
v -0.015411 0.253174 -0.484745
v -0.005402 0.253174 -0.494740
v 0.494866 0.248169 0.023652
v 0.494866 0.253174 0.013642
v 0.484872 0.253174 0.023652
v 0.464883 0.248169 0.023652
v 0.474862 0.253174 0.023652
v 0.464883 0.253174 0.013642
v -0.015411 0.002041 -0.494740
v -0.015411 0.248169 -0.494740
v 0.004608 0.253174 -0.494740
v -0.005402 0.253174 -0.494740
v 0.014618 0.002041 -0.494740
v 0.014618 0.248169 -0.494740
v -0.015411 0.248169 -0.464726
v -0.005402 0.253174 -0.464726
v -0.015411 0.253174 -0.474736
v 0.494866 0.002041 0.023652
v 0.494866 0.253174 0.013642
v 0.494866 0.248169 0.023652
v 0.494866 0.002041 -0.006377
v 0.494866 0.248169 -0.006377
v 0.494866 0.253174 0.003633
v 0.484872 0.253174 0.023652
v 0.474862 0.253174 -0.006377
v 0.464883 0.253174 0.013642
v 0.474862 0.253174 0.023652
v 0.464883 0.253174 0.003633
v 0.494866 0.253174 0.003633
v 0.494866 0.253174 0.013642
v 0.484872 0.253174 -0.006377
v 0.014618 0.253174 0.004365
v 0.014618 0.253174 -0.005645
v 0.004608 0.253174 0.014375
v -0.005402 0.253174 -0.015655
v 0.004608 0.253174 -0.015655
v -0.015411 0.253174 0.004365
v -0.005402 0.253174 0.014375
v -0.015411 0.253174 -0.005645
v 0.004608 0.253174 -0.464726
v 0.014618 0.253174 -0.484745
v -0.005402 0.253174 -0.494740
v 0.014618 0.253174 -0.474736
v 0.004608 0.253174 -0.494740
v -0.015411 0.253174 -0.474736
v -0.005402 0.253174 -0.464726
v -0.015411 0.253174 -0.484745
v -0.015411 0.248169 -0.015655
v -0.015411 0.253174 -0.005645
v -0.005402 0.253174 -0.015655
v 0.014618 0.248169 0.014375
v 0.014618 0.253174 0.004365
v 0.004608 0.253174 0.014375
v 0.004120 0.218140 -0.244466
v -0.008576 0.218140 -0.014434
v 0.004120 0.218140 -0.014434
v -0.008576 0.218140 -0.244106
v -0.008576 0.216675 -0.491053
v 0.004120 0.216675 -0.490336
v 0.488834 0.213379 -0.002959
v 0.489112 0.213379 0.009736
v 0.297761 0.211914 0.025605
v 0.298317 0.211914 0.013154
v 0.203094 0.213379 0.001191
v 0.202362 0.213379 0.013887
v 0.003631 0.213379 0.005586
v 0.003631 0.213379 -0.007110
v 0.014618 0.248169 -0.494740
v 0.004608 0.253174 -0.494740
v 0.014618 0.253174 -0.484745
v 0.494866 0.248169 -0.006377
v 0.484872 0.253174 -0.006377
v 0.494866 0.253174 0.003633
v -0.009552 0.156738 -0.211455
v 0.003143 0.155273 -0.304801
v -0.009552 0.155273 -0.305336
v -0.009552 0.156738 -0.488531
v 0.003143 0.156738 -0.210723
v 0.003143 0.156738 -0.011992
v -0.009552 0.156738 -0.011992
v 0.003143 0.156738 -0.488798
v 0.003631 0.139404 -0.007110
v 0.230783 0.139404 0.021070
v 0.230402 0.139404 0.008129
v 0.003631 0.139404 0.005586
v 0.491173 0.139404 0.007039
v 0.492724 0.139404 0.019435
v -0.006622 0.071737 -0.493298
v 0.006073 0.071757 -0.492815
v 0.006073 0.065144 -0.301427
v -0.006622 0.065125 -0.301880
v -0.006622 0.075317 -0.098174
v 0.006073 0.075317 -0.097197
v -0.006622 0.075317 -0.011992
v 0.006073 0.075317 -0.011992
v 0.492668 0.073135 0.007435
v 0.492852 0.073185 0.019897
v 0.260320 0.075082 0.011613
v 0.259158 0.075109 -0.001046
v 0.003631 0.059021 -0.007110
v 0.003631 0.059021 0.005586
v 0.464883 0.248169 -0.006377
v 0.464883 0.253174 0.003633
v 0.474862 0.253174 -0.006377
v 0.014618 0.248169 -0.464726
v 0.014618 0.253174 -0.474736
v 0.004608 0.253174 -0.464726
v 0.464883 0.002041 -0.006377
v 0.464883 0.253174 0.003633
v 0.464883 0.248169 -0.006377
v 0.464883 0.002041 0.023652
v 0.464883 0.248169 0.023652
v 0.464883 0.253174 0.013642
v -0.015411 0.002041 -0.464726
v -0.005402 0.253174 -0.464726
v -0.015411 0.248169 -0.464726
v 0.014618 0.002041 -0.464726
v 0.014618 0.248169 -0.464726
v 0.004608 0.253174 -0.464726
v 0.014618 0.248169 -0.015655
v 0.004608 0.253174 -0.015655
v 0.014618 0.253174 -0.005645
v -0.015411 0.002041 -0.015655
v -0.015411 0.248169 -0.015655
v 0.004608 0.253174 -0.015655
v -0.005402 0.253174 -0.015655
v 0.014618 0.002041 -0.015655
v 0.014618 0.248169 -0.015655
v 0.014618 0.002041 -0.464726
v 0.014618 0.253174 -0.474736
v 0.014618 0.248169 -0.464726
v 0.014618 0.002041 -0.494740
v 0.014618 0.248169 -0.494740
v 0.014618 0.253174 -0.484745
v 0.014618 0.002041 0.014375
v 0.014618 0.253174 0.004365
v 0.014618 0.248169 0.014375
v 0.014618 0.002041 -0.015655
v 0.014618 0.248169 -0.015655
v 0.014618 0.253174 -0.005645
v 0.464883 0.002041 -0.006377
v 0.464883 0.248169 -0.006377
v 0.484872 0.253174 -0.006377
v 0.474862 0.253174 -0.006377
v 0.494866 0.002041 -0.006377
v 0.494866 0.248169 -0.006377
v 0.006073 0.046730 -0.490331
v 0.006073 0.071757 -0.492815
v 0.006073 0.065144 -0.301427
v 0.006073 0.041515 -0.297622
v 0.006073 0.075317 -0.097197
v 0.006073 0.046753 -0.097442
v 0.006073 0.075317 -0.011992
v 0.006073 0.046753 -0.011992
v 0.003631 0.059021 -0.007110
v 0.251212 0.047007 0.000561
v 0.003631 0.030426 -0.007110
v 0.259158 0.075109 -0.001046
v 0.490902 0.045966 0.007521
v 0.492668 0.073135 0.007435
v 0.004120 0.218140 -0.014434
v 0.004120 0.189575 -0.239176
v 0.004120 0.218140 -0.244466
v 0.004120 0.189575 -0.014434
v 0.004120 0.189575 -0.491591
v 0.004120 0.216675 -0.490336
v 0.003143 0.128174 -0.492739
v 0.003143 0.156738 -0.488798
v 0.003143 0.128174 -0.303866
v 0.003143 0.155273 -0.304801
v 0.003143 0.156738 -0.210723
v 0.003143 0.122559 -0.209990
v 0.003143 0.128174 -0.011992
v 0.003143 0.156738 -0.011992
v 0.492932 0.184814 0.001924
v 0.488834 0.213379 -0.002959
v 0.297345 0.184814 0.013154
v 0.298317 0.211914 0.013154
v 0.203094 0.213379 0.001191
v 0.202362 0.179199 0.001191
v 0.003631 0.213379 -0.007110
v 0.003631 0.184814 -0.007110
v 0.003631 0.110779 -0.007110
v 0.230402 0.139404 0.008129
v 0.235441 0.110779 0.003000
v 0.003631 0.139404 -0.007110
v 0.491173 0.139404 0.007039
v 0.489926 0.112244 0.007097
vt 0.591309 0.960693
vt 0.583984 0.988083
vt 0.591309 0.974380
vt 0.237061 0.988083
vt 0.237061 0.946991
vt 0.583984 0.946991
vt 0.094727 0.986946
vt 0.120789 0.986946
vt 0.094727 0.961029
vt 0.237061 0.946991
vt 0.591309 0.919617
vt 0.237061 0.905884
vt 0.583984 0.905884
vt 0.583984 0.946991
vt 0.591309 0.933289
vt 0.591309 0.919617
vt 0.583984 0.946991
vt 0.591309 0.933289
vt 0.237061 0.946991
vt 0.237061 0.905884
vt 0.583984 0.905884
vt 0.980957 0.646484
vt 0.729980 0.588379
vt 0.980957 0.588379
vt 0.722656 0.646484
vt 0.371826 0.588379
vt 0.373779 0.643555
vt 0.722656 0.646484
vt 0.371826 0.588379
vt 0.729980 0.588379
vt 0.373779 0.643555
vt 0.235962 0.646484
vt 0.235107 0.577148
vt 0.029663 0.588379
vt 0.029663 0.646484
vt 0.237061 0.946991
vt 0.591309 0.960693
vt 0.583984 0.946991
vt 0.237061 0.988083
vt 0.583984 0.988083
vt 0.591309 0.974380
vt 0.373047 0.588379
vt 0.722168 0.646484
vt 0.729492 0.588379
vt 0.374756 0.643555
vt 0.236816 0.646484
vt 0.235840 0.577148
vt 0.029663 0.646484
vt 0.029663 0.588379
vt 0.980957 0.646484
vt 0.729980 0.588379
vt 0.980957 0.588379
vt 0.722656 0.646484
vt 0.371826 0.588379
vt 0.373779 0.643555
vt 0.980957 0.646484
vt 0.729492 0.588379
vt 0.722168 0.646484
vt 0.980957 0.588379
vt 0.373047 0.588379
vt 0.374756 0.643555
vt 0.985840 0.828979
vt 0.895020 0.882263
vt 0.895020 0.828979
vt 0.985840 0.882263
vt 0.552734 0.817261
vt 0.548828 0.861328
vt 0.139282 0.828979
vt 0.138550 0.875732
vt 0.094727 0.909180
vt 0.094727 0.935059
vt 0.120789 0.909180
vt 0.172974 0.986946
vt 0.172974 0.961029
vt 0.146851 0.986946
vt 0.094727 0.986946
vt 0.120789 0.986946
vt 0.094727 0.961029
vt 0.622070 0.987236
vt 0.969238 0.987236
vt 0.976074 0.959839
vt 0.976074 0.973541
vt 0.622070 0.946136
vt 0.969238 0.946136
vt 0.094727 0.986946
vt 0.120789 0.986946
vt 0.094727 0.961029
vt 0.622070 0.905029
vt 0.976074 0.918762
vt 0.969238 0.905029
vt 0.622070 0.946136
vt 0.969238 0.946136
vt 0.976074 0.932434
vt 0.146851 0.986946
vt 0.120789 0.909180
vt 0.094727 0.961029
vt 0.120789 0.986946
vt 0.094727 0.935059
vt 0.172974 0.935059
vt 0.172974 0.961029
vt 0.146851 0.909180
vt 0.172974 0.961029
vt 0.172974 0.935059
vt 0.146851 0.986946
vt 0.120789 0.909180
vt 0.146851 0.909180
vt 0.094727 0.961029
vt 0.120789 0.986946
vt 0.094727 0.935059
vt 0.146851 0.986946
vt 0.172974 0.935059
vt 0.120789 0.909180
vt 0.172974 0.961029
vt 0.146851 0.909180
vt 0.094727 0.961029
vt 0.120789 0.986946
vt 0.094727 0.935059
vt 0.094727 0.909180
vt 0.094727 0.935059
vt 0.120789 0.909180
vt 0.172974 0.986946
vt 0.172974 0.961029
vt 0.146851 0.986946
vt 0.717285 0.677979
vt 0.976074 0.705322
vt 0.976074 0.677979
vt 0.717773 0.705322
vt 0.369385 0.705322
vt 0.370361 0.677979
vt 0.717285 0.677979
vt 0.369385 0.705322
vt 0.717773 0.705322
vt 0.370361 0.677979
vt 0.232422 0.677979
vt 0.231689 0.705322
vt 0.025513 0.705322
vt 0.025513 0.677979
vt 0.172974 0.909180
vt 0.146851 0.909180
vt 0.172974 0.935059
vt 0.172974 0.909180
vt 0.146851 0.909180
vt 0.172974 0.935059
vt 0.232422 0.677979
vt 0.369385 0.705322
vt 0.370361 0.677979
vt 0.717285 0.677979
vt 0.231689 0.705322
vt 0.025513 0.705322
vt 0.025513 0.677979
vt 0.717773 0.705322
vt 0.976074 0.677979
vt 0.725586 0.705322
vt 0.725098 0.677979
vt 0.976074 0.705322
vt 0.368652 0.677979
vt 0.367676 0.705322
vt 0.143799 0.788818
vt 0.554688 0.740234
vt 0.144653 0.740234
vt 0.553711 0.788818
vt 0.899414 0.788818
vt 0.900391 0.740234
vt 0.989746 0.788818
vt 0.989746 0.740234
vt 0.369385 0.705322
vt 0.717285 0.677979
vt 0.370361 0.677979
vt 0.717773 0.705322
vt 0.976074 0.705322
vt 0.976074 0.677979
vt 0.094727 0.909180
vt 0.094727 0.935059
vt 0.120789 0.909180
vt 0.172974 0.986946
vt 0.172974 0.961029
vt 0.146851 0.986946
vt 0.237061 0.905884
vt 0.591309 0.919617
vt 0.583984 0.905884
vt 0.237061 0.946991
vt 0.583984 0.946991
vt 0.591309 0.933289
vt 0.237061 0.946991
vt 0.591309 0.960693
vt 0.583984 0.946991
vt 0.237061 0.988083
vt 0.583984 0.988083
vt 0.591309 0.974380
vt 0.172974 0.909180
vt 0.146851 0.909180
vt 0.172974 0.935059
vt 0.622070 0.987236
vt 0.969238 0.987236
vt 0.976074 0.959839
vt 0.976074 0.973541
vt 0.622070 0.946136
vt 0.969238 0.946136
vt 0.622070 0.905029
vt 0.976074 0.918762
vt 0.969238 0.905029
vt 0.622070 0.946136
vt 0.969238 0.946136
vt 0.976074 0.932434
vt 0.622070 0.905029
vt 0.976074 0.918762
vt 0.969238 0.905029
vt 0.622070 0.946136
vt 0.969238 0.946136
vt 0.976074 0.932434
vt 0.622070 0.987236
vt 0.969238 0.987236
vt 0.976074 0.959839
vt 0.976074 0.973541
vt 0.622070 0.946136
vt 0.969238 0.946136
vt 0.549805 0.861328
vt 0.140137 0.828979
vt 0.139526 0.875732
vt 0.553711 0.817261
vt 0.895996 0.882263
vt 0.895996 0.828979
vt 0.985840 0.882263
vt 0.985840 0.828979
vt 0.980957 0.646484
vt 0.729980 0.588379
vt 0.980957 0.588379
vt 0.722656 0.646484
vt 0.371826 0.588379
vt 0.373779 0.643555
vt 0.980957 0.646484
vt 0.729492 0.588379
vt 0.722168 0.646484
vt 0.980957 0.588379
vt 0.373047 0.588379
vt 0.374756 0.643555
vt 0.722656 0.646484
vt 0.371826 0.588379
vt 0.729980 0.588379
vt 0.373779 0.643555
vt 0.235962 0.646484
vt 0.235107 0.577148
vt 0.029663 0.588379
vt 0.029663 0.646484
vt 0.373047 0.588379
vt 0.722168 0.646484
vt 0.729492 0.588379
vt 0.374756 0.643555
vt 0.236816 0.646484
vt 0.235840 0.577148
vt 0.029663 0.646484
vt 0.029663 0.588379
vt 0.980957 0.646484
vt 0.729492 0.588379
vt 0.722168 0.646484
vt 0.980957 0.588379
vt 0.373047 0.588379
vt 0.374756 0.643555
vn 0.0039 0.0039 1.0000
vn -0.4056 0.8152 0.4135
vn -0.9999 0.0119 0.0040
vn -0.0568 -0.0214 0.9982
vn -0.0183 -0.1666 0.9859
vn -0.0571 0.0118 0.9983
vn -0.0110 -0.1646 0.9863
vn -0.0105 -0.0132 0.9999
vn -0.0178 0.0073 0.9998
vn 0.0510 0.1608 0.9857
vn -0.0203 0.0150 0.9997
vn 0.0615 0.1849 0.9808
vn -0.0115 0.0114 0.9999
vn -0.0758 0.0119 0.9971
vn -0.0753 0.0121 0.9971
vn -0.0353 0.0117 0.9993
vn -0.0353 0.0118 0.9993
vn -0.9999 0.0118 0.0041
vn -0.9999 0.0121 -0.0031
vn -0.9999 0.0068 0.0105
vn -0.9999 0.0119 0.0039
vn -0.9999 0.0118 0.0040
vn -0.9999 0.0070 0.0103
vn -0.9999 0.0120 -0.0036
vn -0.0198 0.0055 0.9998
vn -0.0220 0.0739 0.9970
vn -0.0207 0.0712 0.9972
vn -0.0198 0.0043 0.9998
vn -0.0355 0.0123 0.9993
vn -0.0344 0.0086 0.9994
vn -0.9999 0.0119 0.0038
vn -0.9999 0.0119 0.0037
vn -0.9999 0.0120 0.0037
vn -0.9999 0.0077 0.0099
vn -0.9999 0.0116 -0.0046
vn -0.4069 0.8178 -0.4069
vn 0.4122 0.8126 0.4122
vn 0.0040 0.0040 -1.0000
vn 1.0000 0.0039 0.0039
vn 1.0000 0.0040 0.0039
vn 0.0039 1.0000 0.0039
vn 0.4122 0.8125 0.4122
vn 0.0039 1.0000 0.0031
vn 0.0031 1.0000 -0.0028
vn 0.0042 1.0000 -0.0077
vn -0.0095 0.9999 0.0071
vn 0.0044 1.0000 0.0038
vn -0.0023 1.0000 -0.0046
vn 0.0046 1.0000 0.0038
vn 0.0059 1.0000 0.0040
vn 0.0061 1.0000 0.0040
vn 0.4135 0.8152 -0.4056
vn 0.0040 1.0000 0.0016
vn 0.0038 1.0000 0.0035
vn 0.0038 1.0000 0.0034
vn 0.0025 0.9999 0.0115
vn 0.0041 1.0000 0.0018
vn 0.0044 1.0000 0.0074
vn 0.0039 1.0000 0.0040
vn 0.0040 1.0000 0.0038
vn 0.0038 1.0000 0.0040
vn -0.0005 1.0000 0.0090
vn 0.0034 0.9999 -0.0098
vn 0.0013 0.9992 0.0396
vn 0.0036 1.0000 -0.0079
vn 0.0026 0.9995 0.0309
vn 0.0036 1.0000 -0.0083
vn 0.0054 0.9999 -0.0152
vn 0.0053 0.9999 -0.0134
vn 0.0056 1.0000 0.0057
vn -0.0126 0.9999 0.0065
vn 0.0152 0.9999 -0.0065
vn -0.0192 0.9998 0.0072
vn -0.0547 0.9985 0.0043
vn -0.0547 0.9985 0.0041
vn 1.0000 0.0040 0.0038
vn 1.0000 0.0022 0.0051
vn 1.0000 0.0052 0.0018
vn 0.0278 0.0027 -0.9996
vn 0.0308 -0.0590 -0.9978
vn 0.0278 0.0039 -0.9996
vn 0.0295 -0.0566 -0.9980
vn 0.0274 0.0045 -0.9996
vn 0.0521 -0.0091 -0.9986
vn 1.0000 0.0020 0.0052
vn 1.0000 0.0051 0.0022
vn 1.0000 0.0051 0.0023
vn 1.0000 0.0039 0.0040
vn 0.0286 -0.0070 -0.9996
vn -0.0490 -0.1626 -0.9855
vn -0.0714 -0.1608 -0.9844
vn 0.0197 0.0043 -0.9998
vn 0.0847 0.0037 -0.9964
vn 0.0839 0.0036 -0.9965
vn 0.0434 0.0040 -0.9990
vn 0.0651 0.0294 -0.9974
vn 0.0266 0.1680 -0.9854
vn 0.0195 0.1737 -0.9846
vn 0.0654 0.0040 -0.9979
vn 0.0221 0.0074 -0.9997
vn 0.0101 0.0085 -0.9999
usemtl Default_OBJ
s 1
f 1/1/1 2/2/1 3/3/1
f 4/4/1 2/2/1 1/1/1
f 4/4/1 1/1/1 5/5/1
f 5/5/1 1/1/1 6/6/1
f 7/7/2 8/8/2 9/9/2
f 10/10/3 11/11/3 12/12/3
f 12/12/3 11/11/3 13/13/3
f 10/10/3 14/14/3 11/11/3
f 11/11/3 14/14/3 15/15/3
f 16/16/3 17/17/3 18/18/3
f 19/19/3 17/17/3 16/16/3
f 19/19/3 16/16/3 20/20/3
f 20/20/3 16/16/3 21/21/3
f 22/22/4 23/23/5 24/24/6
f 23/23/5 22/22/4 25/25/7
f 25/25/7 26/26/8 23/23/5
f 26/26/8 25/25/7 27/27/9
f 29/28/10 30/29/11 28/30/12
f 30/29/11 29/28/10 31/31/13
f 32/32/14 30/29/11 31/31/13
f 30/29/11 32/32/14 33/33/15
f 32/32/14 34/34/16 33/33/15
f 34/34/16 32/32/14 35/35/17
f 36/36/1 37/37/1 38/38/1
f 39/39/1 37/37/1 36/36/1
f 39/39/1 40/40/1 37/37/1
f 37/37/1 40/40/1 41/41/1
f 44/42/18 43/43/19 42/44/20
f 43/43/19 44/42/18 45/45/21
f 44/42/18 46/46/21 45/45/21
f 46/46/21 44/42/18 47/47/22
f 47/47/22 48/48/3 46/46/21
f 48/48/3 47/47/22 49/49/3
f 50/50/3 51/51/3 52/52/3
f 51/51/3 50/50/3 53/53/21
f 53/53/21 54/54/23 51/51/3
f 54/54/23 53/53/21 55/55/24
f 56/56/25 57/57/26 58/58/27
f 57/57/26 56/56/25 59/59/28
f 60/60/29 58/58/27 57/57/26
f 58/58/27 60/60/29 61/61/30
f 62/62/3 63/63/31 64/64/31
f 63/63/31 62/62/3 65/65/3
f 63/63/31 66/66/32 64/64/31
f 66/66/32 63/63/31 67/67/33
f 67/67/33 68/68/34 66/66/32
f 68/68/34 67/67/33 69/69/35
f 70/70/36 71/71/36 72/72/36
f 73/73/37 74/74/37 75/75/37
f 76/76/2 77/77/2 78/78/2
f 79/79/38 80/80/38 81/81/38
f 81/81/38 80/80/38 82/82/38
f 79/79/38 81/81/38 83/83/38
f 83/83/38 81/81/38 84/84/38
f 85/85/2 86/86/2 87/87/2
f 88/88/39 89/89/39 90/90/39
f 91/91/39 89/89/39 88/88/39
f 91/91/39 92/92/39 89/89/39
f 89/89/39 92/92/39 93/93/40
f 94/94/41 95/95/41 96/96/41
f 94/94/41 96/96/41 97/97/41
f 96/96/41 95/95/41 98/98/41
f 94/94/41 99/99/41 95/95/41
f 100/100/41 99/99/41 94/94/41
f 95/95/41 99/99/41 101/101/41
f 102/102/41 103/103/41 104/104/41
f 104/104/41 103/103/41 105/105/41
f 105/105/41 103/103/41 106/106/41
f 104/104/41 105/105/41 107/107/41
f 104/104/41 107/107/41 108/108/41
f 107/107/41 105/105/41 109/109/41
f 110/110/41 111/111/41 112/112/41
f 113/113/41 111/111/41 110/110/41
f 112/112/41 111/111/41 114/114/41
f 110/110/41 112/112/41 115/115/41
f 110/110/41 115/115/41 116/116/41
f 115/115/41 112/112/41 117/117/41
f 118/118/36 119/119/36 120/120/36
f 121/121/42 122/122/42 123/123/42
f 124/124/43 125/125/41 126/126/41
f 125/125/41 124/124/43 127/127/43
f 124/124/43 128/128/44 127/127/43
f 128/128/44 124/124/43 129/129/45
f 130/130/46 132/131/47 131/132/48
f 132/131/47 130/130/46 133/133/49
f 134/134/50 132/131/47 133/133/49
f 132/131/47 134/134/50 135/135/51
f 134/134/50 136/136/41 135/135/51
f 136/136/41 134/134/50 137/137/41
f 138/138/52 139/139/52 140/140/52
f 141/141/52 142/142/52 143/143/52
f 144/144/53 145/145/54 146/146/55
f 145/145/54 147/147/56 146/146/55
f 145/145/54 144/144/53 148/148/57
f 144/144/53 149/149/41 148/148/57
f 149/149/41 144/144/53 150/150/41
f 147/147/56 145/145/54 151/151/58
f 152/152/59 153/153/60 154/154/60
f 153/153/60 152/152/59 155/155/61
f 153/153/60 156/156/62 154/154/60
f 156/156/62 153/153/60 157/157/63
f 158/158/64 160/159/65 159/160/66
f 160/159/65 158/158/64 161/161/67
f 162/162/68 160/159/65 161/161/67
f 160/159/65 162/162/68 163/163/69
f 164/164/41 163/163/69 162/162/68
f 163/163/69 164/164/41 165/165/41
f 166/166/70 168/167/71 167/168/72
f 168/167/71 166/166/70 169/169/73
f 170/170/74 168/167/71 169/169/73
f 168/167/71 170/170/74 171/171/75
f 172/172/36 173/173/36 174/174/36
f 175/175/42 176/176/42 177/177/42
f 178/178/3 179/179/3 180/180/3
f 181/181/3 179/179/3 178/178/3
f 181/181/3 182/182/3 179/179/3
f 179/179/3 182/182/3 183/183/3
f 184/184/1 185/185/1 186/186/1
f 187/187/1 185/185/1 184/184/1
f 187/187/1 188/188/1 185/185/1
f 185/185/1 188/188/1 189/189/1
f 190/190/52 191/191/52 192/192/52
f 193/193/38 194/194/38 195/195/38
f 195/195/38 194/194/38 196/196/38
f 193/193/38 195/195/38 197/197/38
f 197/197/38 195/195/38 198/198/38
f 199/199/39 200/200/39 201/201/39
f 202/202/39 200/200/39 199/199/39
f 202/202/39 203/203/39 200/200/39
f 200/200/39 203/203/39 204/204/40
f 205/205/39 206/206/39 207/207/39
f 208/208/39 206/206/39 205/205/39
f 208/208/39 209/209/39 206/206/39
f 206/206/39 209/209/39 210/210/39
f 211/211/38 212/212/38 213/213/38
f 213/213/38 212/212/38 214/214/38
f 211/211/38 213/213/38 215/215/38
f 215/215/38 213/213/38 216/216/38
f 219/217/76 217/218/77 218/219/78
f 217/218/77 219/217/76 220/220/76
f 221/221/40 220/220/76 219/217/76
f 220/220/76 221/221/40 222/222/40
f 223/223/39 222/222/40 221/221/40
f 222/222/40 223/223/39 224/224/39
f 225/225/79 226/226/80 227/227/81
f 226/226/80 225/225/79 228/228/82
f 228/228/82 229/229/83 226/226/80
f 229/229/83 228/228/82 230/230/84
f 231/231/39 232/232/39 233/233/39
f 232/232/39 231/231/39 234/234/39
f 235/235/85 233/233/39 232/232/39
f 233/233/39 235/235/85 236/236/86
f 238/237/87 239/238/88 237/239/85
f 239/238/88 238/237/87 240/240/39
f 241/241/39 239/238/88 240/240/39
f 239/238/88 241/241/39 242/242/39
f 241/241/39 243/243/39 242/242/39
f 243/243/39 241/241/39 244/244/39
f 247/245/89 246/246/90 245/247/91
f 246/246/90 247/245/89 248/248/92
f 247/245/89 249/249/93 248/248/92
f 249/249/93 247/245/89 250/250/94
f 250/250/94 251/251/95 249/249/93
f 251/251/95 250/250/94 252/252/95
f 253/253/96 254/254/97 255/255/98
f 254/254/97 253/253/96 256/256/99
f 257/257/100 255/255/98 254/254/97
f 255/255/98 257/257/100 258/258/101
